<?xml version="1.0" standalone="no"?>
<!DOCTYPE svg PUBLIC "-//W3C//DTD SVG 20010904//EN"
 "http://www.w3.org/TR/2001/REC-SVG-20010904/DTD/svg10.dtd">
<svg version="1.0" xmlns="http://www.w3.org/2000/svg"
 width="500.000000pt" height="500.000000pt" viewBox="0 0 500.000000 500.000000"
 preserveAspectRatio="xMidYMid meet">
<metadata>
Created by potrace 1.14, written by Peter Selinger 2001-2017
</metadata>
<g transform="translate(0.000000,500.000000) scale(0.100000,-0.100000)"
fill="#000000" stroke="none">
<path d="M2152 4545 c-40 -13 -83 -30 -96 -39 -13 -8 -46 -18 -73 -21 -50 -6
-135 -36 -191 -67 -18 -10 -37 -18 -43 -18 -17 0 -144 -62 -147 -72 -2 -4 -9
-8 -16 -8 -7 0 -68 -41 -136 -91 -68 -50 -153 -107 -189 -126 -202 -109 -327
-207 -415 -324 -25 -33 -48 -76 -52 -95 -4 -20 -24 -53 -50 -82 -55 -60 -84
-116 -86 -167 -1 -49 -7 -62 -73 -147 -80 -106 -107 -209 -79 -303 15 -52 9
-106 -18 -159 -22 -42 -29 -143 -15 -229 4 -25 -1 -57 -13 -92 -10 -30 -19
-65 -19 -77 0 -13 -1 -34 -1 -48 0 -14 8 -50 17 -80 19 -63 17 -55 27 -100 5
-19 13 -40 18 -47 5 -6 11 -40 12 -75 4 -83 84 -328 107 -328 6 0 24 -40 21
-47 -1 -2 5 -21 13 -43 8 -22 12 -40 10 -40 -2 0 7 -16 20 -36 14 -20 25 -42
25 -49 0 -7 18 -42 40 -76 22 -35 48 -77 58 -94 9 -16 32 -42 49 -59 18 -16
33 -34 33 -39 0 -5 30 -43 67 -84 38 -41 67 -79 66 -84 -2 -5 7 -14 19 -20 13
-7 32 -24 43 -38 43 -56 95 -108 122 -121 15 -8 53 -30 83 -50 30 -19 62 -39
71 -45 9 -5 35 -25 59 -43 24 -17 53 -32 66 -32 32 0 76 -18 70 -29 -8 -13 53
-64 95 -80 18 -7 41 -17 49 -22 68 -40 85 -47 149 -54 19 -2 37 -7 40 -12 8
-11 40 -31 71 -44 14 -5 39 -17 55 -26 34 -18 164 -27 209 -15 19 5 49 3 80
-6 84 -22 170 -23 248 -1 56 16 78 18 101 9 43 -14 79 -13 123 7 22 9 69 17
109 18 101 3 223 38 315 90 98 57 135 79 140 86 5 6 34 17 67 24 10 2 37 10
61 19 23 8 43 15 45 15 21 -6 293 89 349 122 66 39 81 55 109 116 13 26 34 66
49 88 14 22 32 57 39 78 7 21 36 62 65 90 55 54 113 127 102 127 -4 0 -2 9 4
21 7 11 14 32 16 46 12 64 -11 60 376 59 194 -1 359 0 366 2 9 3 12 50 12 191
l0 186 -284 0 -283 -1 2 31 c8 85 19 144 37 184 10 25 21 65 24 90 4 25 14 69
23 96 18 51 19 68 6 230 -3 50 -8 113 -10 140 -5 79 -17 158 -27 185 -6 14
-12 43 -14 65 -2 22 -6 56 -9 75 -7 37 -78 212 -99 245 -7 11 -16 38 -19 59
-3 21 -18 57 -33 79 -15 23 -28 54 -29 69 -2 26 -11 40 -60 93 -5 6 -18 14
-27 18 -16 6 -23 26 -19 51 5 24 -12 56 -58 106 -28 30 -51 59 -51 63 0 17
-59 94 -110 142 -28 28 -61 61 -73 74 -12 14 -67 69 -122 124 -89 88 -111 104
-203 148 -56 27 -106 49 -110 49 -17 0 -83 39 -122 73 -24 20 -45 36 -49 35
-3 -1 -13 1 -21 5 -30 11 -128 37 -144 37 -9 0 -35 15 -59 33 -73 56 -153 79
-255 74 -59 -3 -100 1 -127 10 -51 18 -104 23 -295 28 -140 3 -162 1 -228 -20z
m-59 -389 c160 -38 303 -141 354 -255 40 -89 39 -227 -2 -333 -5 -13 12 -37
66 -93 l72 -75 33 49 c18 27 38 51 44 53 8 2 7 19 -1 57 -25 117 8 218 98 306
52 52 169 117 229 130 135 29 254 25 366 -11 25 -7 22 -50 -9 -131 -3 -10 -7
-20 -8 -23 -5 -20 -54 -114 -80 -155 -70 -109 -167 -185 -267 -207 -50 -12
-133 -17 -133 -8 0 0 -17 3 -38 5 -20 2 -43 8 -50 12 -26 16 -52 12 -79 -14
-15 -15 -28 -30 -28 -35 0 -4 -7 -16 -15 -25 -8 -10 -20 -26 -28 -36 -20 -28
-73 -25 -96 5 -11 13 -44 49 -74 80 l-54 56 -54 -29 c-54 -30 -189 -83 -189
-74 0 2 -12 0 -27 -6 -15 -5 -64 -10 -110 -10 -178 0 -337 84 -443 236 -44 62
-107 183 -113 215 -3 14 -10 36 -15 50 -19 47 -25 65 -27 83 -2 9 -3 18 -5 20
-8 10 -6 38 3 45 45 35 188 98 242 107 11 2 31 6 45 10 14 4 45 9 70 12 25 3
46 6 47 7 10 9 222 -5 276 -18z m1365 -920 c78 -5 119 -14 173 -41 53 -27 119
-83 119 -101 0 -7 4 -14 8 -16 4 -1 19 -28 32 -58 24 -53 25 -64 28 -336 2
-166 -1 -303 -7 -336 -27 -147 -110 -237 -258 -281 -77 -23 -271 -17 -341 11
-102 40 -186 128 -207 217 -4 17 -9 39 -12 50 -11 44 -9 561 3 612 14 62 45
128 77 163 54 61 155 108 244 115 30 2 57 6 60 9 3 3 10 3 14 0 5 -3 35 -7 67
-8z m-825 -15 c15 -6 27 -8 27 -5 0 4 6 1 13 -5 8 -6 17 -8 20 -4 4 3 7 1 7
-5 0 -7 6 -12 14 -12 32 0 147 -128 143 -160 0 -3 5 -15 12 -28 15 -29 25
-105 17 -136 -5 -22 -49 -39 -156 -61 -60 -12 -119 -4 -121 16 -1 5 -3 12 -4
17 -1 4 -6 21 -10 39 -13 55 -46 77 -119 77 -115 0 -124 -21 -126 -297 0 -121
4 -224 10 -248 16 -57 57 -81 130 -74 67 7 86 24 106 92 14 47 32 70 56 71 4
1 22 -3 39 -8 18 -5 49 -12 69 -15 21 -3 57 -11 81 -18 l44 -13 1 -54 c3 -153
-94 -277 -252 -323 -64 -19 -235 -20 -301 -3 -119 32 -205 104 -242 203 -27
74 -30 99 -30 263 0 157 0 156 -2 215 -1 25 1 48 4 52 4 3 2 14 -4 25 -5 10
-7 23 -3 29 3 6 8 33 9 60 7 118 80 235 173 279 15 7 35 16 45 22 10 5 37 11
60 14 23 4 44 8 46 10 9 8 218 -5 244 -15z m-693 -26 c18 -22 18 -228 0 -250
-10 -13 -47 -15 -234 -15 -158 -1 -225 -4 -236 -13 -18 -14 -20 -101 -2 -119
8 -8 65 -12 168 -13 123 -1 157 -4 165 -16 12 -18 11 -230 -1 -249 -7 -11 -39
-14 -165 -15 -175 -1 -185 -5 -180 -68 2 -18 3 -39 4 -48 1 -17 68 -42 76 -28
3 4 12 6 19 3 20 -8 97 -10 102 -3 2 3 16 4 31 2 30 -4 38 -5 68 -3 11 0 45 0
76 -1 31 -1 61 1 67 4 5 4 20 -1 32 -11 20 -17 22 -27 22 -113 0 -52 -1 -103
-1 -114 -3 -46 -9 -47 -182 -46 -90 1 -168 2 -174 1 -5 0 -30 -1 -53 -3 -24
-1 -46 1 -49 6 -2 4 -9 5 -14 2 -15 -10 -89 -11 -89 -2 0 4 -5 5 -10 2 -10 -6
-96 -9 -170 -6 -57 3 -54 -25 -55 553 0 293 3 541 8 551 4 10 17 21 27 25 10
4 181 6 378 4 305 -2 362 -5 372 -17z m1405 -1235 c4 -6 -4 -32 -18 -58 -22
-43 -28 -47 -63 -49 -63 -3 -67 1 -45 44 25 46 52 78 71 85 16 6 45 -6 55 -22z
m-1789 -17 c10 -15 9 -25 -9 -58 -12 -22 -33 -56 -48 -75 -38 -51 -92 -150
-82 -151 4 -1 39 -2 76 -3 71 -1 79 -5 112 -60 9 -14 14 -13 41 13 52 49 106
71 158 65 38 -4 47 -2 58 16 20 31 70 26 89 -10 1 -3 -17 -35 -40 -72 -70
-110 -129 -286 -97 -289 23 -3 41 3 67 22 15 10 34 19 43 19 11 0 16 10 17 33
2 39 3 46 13 72 17 45 31 71 45 88 8 9 11 17 8 17 -3 0 4 12 16 26 110 129
131 144 210 139 75 -4 94 -54 52 -135 -23 -44 -225 -246 -225 -224 0 3 -7 -2
-16 -10 -25 -25 -14 -51 24 -54 36 -4 105 27 146 64 14 13 27 24 30 24 19 0
70 69 104 140 57 121 95 170 128 168 16 -2 30 -11 36 -24 9 -18 3 -31 -32 -78
-65 -88 -148 -276 -121 -276 3 0 15 15 26 33 20 33 40 57 135 160 30 32 59 67
64 76 18 30 32 39 59 34 40 -8 40 -28 0 -106 -51 -101 -50 -96 -50 -154 -1
-44 4 -57 29 -85 26 -29 27 -34 13 -44 -19 -14 -30 -13 -71 9 -39 20 -56 59
-50 117 5 50 7 51 -54 -29 -44 -58 -75 -89 -90 -92 -27 -6 -79 23 -92 51 l-12
28 -43 -29 c-23 -16 -62 -38 -85 -48 -43 -18 -45 -18 -93 1 -27 10 -58 30 -69
43 l-21 25 -30 -26 c-17 -15 -48 -35 -69 -45 -36 -16 -43 -16 -68 -3 -57 29
-73 116 -38 199 7 17 14 36 16 43 1 7 12 31 23 53 29 55 27 61 -15 54 -89 -14
-192 -131 -248 -281 -29 -76 -47 -91 -91 -74 -28 11 -26 39 4 94 22 39 66 158
74 201 9 50 -3 59 -67 51 -47 -6 -58 -12 -70 -34 -16 -32 -102 -285 -110 -322
-3 -14 -14 -47 -24 -75 -22 -54 -47 -68 -76 -40 -16 17 -22 66 -8 79 4 4 7 11
8 14 0 4 6 21 13 37 7 17 14 37 17 45 2 8 22 67 44 130 23 63 42 117 42 120 2
19 -6 27 -36 38 -32 12 -52 44 -40 64 3 4 29 8 58 8 60 0 68 6 87 68 6 23 16
42 21 42 4 0 8 7 8 15 0 14 59 125 83 156 24 32 73 38 93 12z m1969 -11 c14
-10 17 -44 6 -61 -6 -9 -31 -16 -66 -18 -42 -2 -54 0 -48 10 4 6 9 21 10 32 6
36 67 60 98 37z m-1484 -50 c6 -17 2 -28 -22 -51 -46 -47 -92 -29 -87 34 5 54
90 68 109 17z m933 -218 c26 -10 19 -49 -11 -65 -89 -46 -206 -182 -219 -255
l-5 -27 28 18 c15 10 33 23 39 29 6 6 22 20 35 32 22 19 110 118 135 152 9 12
12 5 17 -34 6 -58 7 -56 -58 -126 -62 -66 -133 -123 -163 -133 -26 -8 -81 11
-98 34 -25 33 -7 104 48 185 52 77 121 141 183 171 59 29 50 26 69 19z m121
-195 c2 -3 -5 -31 -17 -64 -11 -33 -20 -86 -20 -118 -1 -45 -4 -60 -19 -67
-24 -13 -48 -2 -55 25 -6 25 2 130 12 162 23 71 25 73 61 69 18 -2 35 -5 38
-7z m137 -39 c18 -16 21 -30 19 -75 -2 -50 0 -55 18 -55 12 0 21 5 21 10 0 6
6 10 13 10 6 0 23 14 36 31 34 43 60 51 86 27 30 -29 63 -40 86 -27 20 10 59
4 59 -10 0 -17 -54 -61 -74 -61 -12 0 -38 9 -59 20 l-37 20 -31 -35 c-52 -59
-116 -64 -170 -14 -26 24 -30 35 -28 71 2 24 6 50 10 58 4 8 10 23 13 33 7 22
12 21 38 -3z"/>
<path d="M1640 4109 c-88 -20 -92 -21 -125 -33 -11 -5 -26 -10 -33 -12 -17 -5
-12 -45 18 -144 14 -44 97 -220 110 -230 3 -3 17 -21 30 -40 48 -69 113 -125
185 -159 28 -13 58 -28 67 -32 9 -5 63 -7 120 -6 91 3 114 7 197 39 52 21 99
42 104 47 11 11 -24 49 -92 101 -18 14 -42 33 -54 43 -12 10 -34 26 -49 35
-16 9 -28 20 -28 24 0 4 -5 8 -10 8 -6 0 -33 15 -60 34 -27 19 -94 56 -147 83
-54 26 -99 51 -101 56 -2 4 -10 7 -18 7 -18 0 -98 40 -92 46 10 10 383 -151
408 -176 3 -3 19 -12 35 -20 49 -24 168 -105 202 -139 l33 -31 17 27 c29 44
25 176 -7 237 -37 73 -102 134 -185 176 -27 14 -52 27 -55 30 -3 3 -10 6 -17
7 -6 1 -43 11 -81 21 -95 26 -259 26 -372 1z m10 -129 c0 -5 -2 -10 -4 -10 -3
0 -8 5 -11 10 -3 6 -1 10 4 10 6 0 11 -4 11 -10z"/>
<path d="M3129 3979 c-7 -4 -16 -6 -20 -4 -11 7 -110 -24 -174 -55 -114 -55
-205 -173 -205 -267 0 -74 7 -78 54 -36 108 97 308 228 402 263 44 17 24 2
-76 -59 -56 -34 -106 -65 -113 -71 -7 -5 -41 -33 -77 -62 -36 -28 -87 -74
-115 -101 l-49 -50 39 -15 c54 -19 169 -19 228 1 132 46 234 164 300 349 30
84 29 91 -17 100 -56 12 -163 16 -177 7z"/>
<path d="M3355 2951 c-76 -23 -82 -46 -80 -306 1 -123 7 -231 12 -245 18 -42
48 -62 100 -65 70 -4 117 19 133 65 3 8 6 115 7 237 2 234 -4 274 -43 299 -23
16 -98 24 -129 15z"/>
<path d="M2175 1651 c-46 -43 -85 -90 -85 -101 0 -5 -3 -10 -8 -10 -6 0 -25
-31 -50 -82 -2 -5 2 -8 8 -8 18 0 146 137 165 176 23 48 7 61 -30 25z"/>
</g>
</svg>
